# xmcd
#
# Track frame offsets:
#	187
#	14159
#	27444
#	49360
#	63499
#	80451
#	93847
#	111569
#	124986
#	140929
#	153243
#	172331
#
# Disc length: 2498 seconds
#
# Revision: 1
# Processed by: cddbd v1.4b42PL1 Copyright (c) Steve Scherf et al.
# Submitted via: CDmax 1.7.6
#
DISCID=b609c00c
DTITLE=Dallas Wayne - Here I Am In Dallas
DYEAR=1900
DGENRE=
TTITLE0=Bouncin' Beer Cans Off The Jukebox
TTITLE1=Here I Am In Dallas
TTITLE2=The Stuff Inside
TTITLE3=If These Walls Could Cry
TTITLE4=She Lit The Torch
TTITLE5=Hillbilly Jitters
TTITLE6=Not A Dry Eye In The House
TTITLE7=I'm Gonna Break Some Promises Tonight
TTITLE8=Shadows Of My Mind
TTITLE9=Cheatin' Traces
TTITLE10=Happy Hour
TTITLE11=I Hit The Road (And The Road Hit Back)
EXTD=
EXTT0=
EXTT1=
EXTT2=
EXTT3=
EXTT4=
EXTT5=
EXTT6=
EXTT7=
EXTT8=
EXTT9=
EXTT10=
EXTT11=
PLAYORDER=
